<svg width="177" height="32" viewBox="0 0 177 32" fill="none" xmlns="http://www.w3.org/2000/svg">
<rect x="1.5" y="1.5" width="46" height="29" rx="2.5" stroke="#DAD3DA" stroke-width="3"/>
<path d="M22.6887 16.3663C22.7762 16.3663 24.8062 16.4538 26.0137 16.1563H26.0225C27.4137 15.815 29.3475 14.835 29.8462 11.6325C29.8462 11.6325 30.9575 7.625 25.445 7.625H20.7112C20.2825 7.625 19.915 7.94 19.845 8.36L17.8325 21.1C17.7887 21.3625 17.9987 21.6075 18.2612 21.6075H21.2625L21.9975 16.9525C22.05 16.62 22.3387 16.3663 22.6887 16.3663Z" fill="#DAD3DA"/>
<path d="M30.6161 12.2539C29.9074 15.5177 27.6761 17.2414 24.1236 17.2414H22.8374L21.9361 22.9464C21.9011 23.1739 22.0761 23.3752 22.3036 23.3752H23.9661C24.2636 23.3752 24.5261 23.1564 24.5699 22.8589C24.6399 22.5089 25.0249 19.9539 25.1036 19.5164C25.1474 19.2189 25.4099 19.0002 25.7074 19.0002H26.0924C28.5599 19.0002 30.4936 17.9939 31.0624 15.0977C31.2899 13.9252 31.1674 12.9627 30.6161 12.2539Z" fill="#DAD3DA"/>
<rect x="129.5" y="1.5" width="46" height="29" rx="2.5" stroke="#DAD3DA" stroke-width="3"/>
<g clip-path="url(#clip0_460_103)">
<path d="M146.636 23.9208V22.8618C146.636 22.4558 146.396 22.1911 145.984 22.1911C145.778 22.1911 145.555 22.2617 145.401 22.4911C145.281 22.297 145.109 22.1911 144.852 22.1911C144.681 22.1911 144.509 22.244 144.372 22.4382V22.2264H144.012V23.9208H144.372V22.9853C144.372 22.6853 144.526 22.544 144.766 22.544C145.006 22.544 145.127 22.7029 145.127 22.9853V23.9208H145.487V22.9853C145.487 22.6853 145.658 22.544 145.881 22.544C146.121 22.544 146.241 22.7029 146.241 22.9853V23.9208H146.636ZM151.969 22.2264H151.386V21.7145H151.026V22.2264H150.7V22.5617H151.026V23.3383C151.026 23.7267 151.181 23.9561 151.592 23.9561C151.747 23.9561 151.918 23.9032 152.038 23.8326L151.935 23.5148C151.832 23.5854 151.712 23.6031 151.626 23.6031C151.455 23.6031 151.386 23.4972 151.386 23.3206V22.5617H151.969V22.2264ZM155.022 22.191C154.816 22.191 154.679 22.297 154.594 22.4382V22.2264H154.233V23.9208H154.594V22.9677C154.594 22.6853 154.714 22.5264 154.936 22.5264C155.005 22.5264 155.091 22.5441 155.159 22.5617L155.262 22.2088C155.194 22.1911 155.091 22.1911 155.022 22.1911V22.191ZM150.409 22.3676C150.237 22.244 149.997 22.1911 149.74 22.1911C149.328 22.1911 149.054 22.4029 149.054 22.7382C149.054 23.0207 149.26 23.1795 149.62 23.2324L149.791 23.2501C149.98 23.2854 150.083 23.3383 150.083 23.4266C150.083 23.5501 149.946 23.6384 149.706 23.6384C149.466 23.6384 149.277 23.5501 149.157 23.4619L148.985 23.7443C149.174 23.8855 149.431 23.9561 149.688 23.9561C150.169 23.9561 150.443 23.7267 150.443 23.4089C150.443 23.1089 150.22 22.95 149.877 22.8971L149.706 22.8794C149.551 22.8617 149.431 22.8265 149.431 22.7206C149.431 22.597 149.551 22.5264 149.74 22.5264C149.946 22.5264 150.152 22.6146 150.254 22.6676L150.409 22.3676ZM159.979 22.1911C159.773 22.1911 159.636 22.297 159.55 22.4382V22.2264H159.19V23.9208H159.55V22.9677C159.55 22.6853 159.67 22.5264 159.893 22.5264C159.962 22.5264 160.047 22.5441 160.116 22.5617L160.219 22.2088C160.15 22.1911 160.047 22.1911 159.979 22.1911ZM155.382 23.0736C155.382 23.5854 155.725 23.9561 156.257 23.9561C156.497 23.9561 156.669 23.9032 156.84 23.762L156.669 23.4619C156.531 23.5678 156.394 23.6207 156.24 23.6207C155.948 23.6207 155.743 23.4089 155.743 23.0736C155.743 22.7559 155.948 22.544 156.24 22.5264C156.394 22.5264 156.531 22.5793 156.669 22.6853L156.84 22.3853C156.669 22.244 156.497 22.1911 156.257 22.1911C155.725 22.1911 155.382 22.5617 155.382 23.0736ZM158.71 23.0736V22.2264H158.349V22.4382C158.229 22.2794 158.058 22.1911 157.835 22.1911C157.372 22.1911 157.012 22.5617 157.012 23.0736C157.012 23.5854 157.372 23.9561 157.835 23.9561C158.075 23.9561 158.247 23.8679 158.349 23.709V23.9208H158.71V23.0736ZM157.389 23.0736C157.389 22.7735 157.578 22.5264 157.886 22.5264C158.178 22.5264 158.384 22.7559 158.384 23.0736C158.384 23.3736 158.178 23.6207 157.886 23.6207C157.578 23.603 157.389 23.3736 157.389 23.0736ZM153.084 22.1911C152.604 22.1911 152.261 22.544 152.261 23.0736C152.261 23.6031 152.604 23.9561 153.101 23.9561C153.341 23.9561 153.582 23.8855 153.77 23.7267L153.599 23.4619C153.462 23.5678 153.29 23.6384 153.119 23.6384C152.896 23.6384 152.673 23.5325 152.621 23.2324H153.839V23.0913C153.856 22.544 153.547 22.1911 153.084 22.1911ZM153.084 22.5087C153.307 22.5087 153.462 22.65 153.496 22.9148H152.638C152.673 22.6853 152.827 22.5087 153.084 22.5087ZM162.02 23.0736V21.5557H161.659V22.4382C161.539 22.2794 161.368 22.1911 161.145 22.1911C160.682 22.1911 160.322 22.5617 160.322 23.0736C160.322 23.5854 160.682 23.9561 161.145 23.9561C161.385 23.9561 161.557 23.8679 161.659 23.709V23.9208H162.02V23.0736ZM160.699 23.0736C160.699 22.7735 160.888 22.5264 161.196 22.5264C161.488 22.5264 161.694 22.7559 161.694 23.0736C161.694 23.3736 161.488 23.6207 161.196 23.6207C160.888 23.603 160.699 23.3736 160.699 23.0736ZM148.659 23.0736V22.2264H148.299V22.4382C148.179 22.2794 148.008 22.1911 147.785 22.1911C147.322 22.1911 146.962 22.5617 146.962 23.0736C146.962 23.5854 147.322 23.9561 147.785 23.9561C148.025 23.9561 148.196 23.8679 148.299 23.709V23.9208H148.659V23.0736ZM147.322 23.0736C147.322 22.7735 147.51 22.5264 147.819 22.5264C148.111 22.5264 148.316 22.7559 148.316 23.0736C148.316 23.3736 148.111 23.6207 147.819 23.6207C147.51 23.603 147.322 23.3736 147.322 23.0736Z" fill="#DAD3DA"/>
<path d="M150.289 9.35938H155.691V19.3494H150.289V9.35938Z" fill="#B7B7B7"/>
<path d="M150.632 14.3541C150.632 12.3243 151.558 10.524 152.981 9.35904C151.935 8.51184 150.615 8 149.174 8C145.761 8 143 10.8416 143 14.3541C143 17.8665 145.761 20.7082 149.174 20.7082C150.615 20.7082 151.935 20.1963 152.981 19.3491C151.558 18.2018 150.632 16.3838 150.632 14.3541Z" fill="#DAD3DA"/>
<path d="M162.98 14.3541C162.98 17.8665 160.219 20.7082 156.806 20.7082C155.365 20.7082 154.045 20.1963 152.999 19.3491C154.439 18.1842 155.348 16.3838 155.348 14.3541C155.348 12.3243 154.422 10.524 152.999 9.35904C154.045 8.51184 155.365 8 156.806 8C160.219 8 162.98 10.8593 162.98 14.3541Z" fill="#D0C8D0"/>
</g>
<rect x="65.5" y="1.5" width="46" height="29" rx="2.5" stroke="#DAD3DA" stroke-width="3"/>
<path d="M100.073 20.0822L99.8301 18.8635H97.1066L96.6733 20.0735L94.4903 20.0779C95.8933 16.7055 96.9354 14.2084 97.6147 12.5845C97.7923 12.1598 98.1076 11.9431 98.5723 11.9464C98.9277 11.9496 99.5073 11.9496 100.312 11.9475L102 20.079L100.073 20.0822ZM97.7198 17.194H99.4748L98.8193 14.139L97.7198 17.194ZM83.6483 11.9453L85.8432 11.9475L82.4502 20.0833L80.2283 20.0811C79.6695 17.9321 79.1177 15.7813 78.5729 13.6288C78.4646 13.1998 78.2501 12.8997 77.8373 12.7578C77.2278 12.5535 76.6153 12.3581 76 12.1717V11.9475H79.5068C80.1134 11.9475 80.4677 12.241 80.5814 12.8434C80.6963 13.4468 80.9844 14.984 81.4481 17.4519L83.6483 11.9453ZM88.8592 11.9475L87.1248 20.0822L85.035 20.079L86.7683 11.9453L88.8592 11.9475ZM93.095 11.7969C93.7201 11.7969 94.5077 11.9919 94.9605 12.1717L94.5943 13.8574C94.1848 13.6927 93.511 13.4706 92.9444 13.4782C92.1211 13.4923 91.6119 13.8379 91.6119 14.1694C91.6119 14.7089 92.4959 14.9808 93.4059 15.5701C94.4438 16.2418 94.5813 16.8452 94.5683 17.5017C94.5543 18.8613 93.4059 20.2035 90.9836 20.2035C89.8786 20.1873 89.4799 20.0952 88.5786 19.7745L88.9599 18.0152C89.8775 18.3987 90.2664 18.5211 91.0508 18.5211C91.769 18.5211 92.3854 18.2308 92.3908 17.7249C92.3952 17.3652 92.1742 17.1865 91.3682 16.7423C90.5622 16.297 89.4312 15.6817 89.4463 14.4435C89.4648 12.8596 90.9652 11.7969 93.095 11.7969Z" fill="#DAD3DA"/>
<defs>
<clipPath id="clip0_460_103">
<rect width="20" height="16" fill="white" transform="translate(143 8)"/>
</clipPath>
</defs>
</svg>
