<svg width="12" height="20" viewBox="0 0 12 20" fill="none" xmlns="http://www.w3.org/2000/svg">
<path d="M9.12482 19.0999L0.69982 10.6999C0.59982 10.5999 0.52882 10.4916 0.48682 10.3749C0.44482 10.2582 0.424154 10.1332 0.42482 9.9999C0.42482 9.86657 0.445487 9.74157 0.48682 9.6249C0.528153 9.50824 0.599153 9.3999 0.69982 9.2999L9.12482 0.874902C9.35815 0.641569 9.64982 0.524902 9.99982 0.524902C10.3498 0.524902 10.6498 0.649902 10.8998 0.899902C11.1498 1.1499 11.2748 1.44157 11.2748 1.7749C11.2748 2.10824 11.1498 2.3999 10.8998 2.6499L3.54982 9.9999L10.8998 17.3499C11.1332 17.5832 11.2498 17.8709 11.2498 18.2129C11.2498 18.5549 11.1248 18.8506 10.8748 19.0999C10.6248 19.3499 10.3332 19.4749 9.99982 19.4749C9.66649 19.4749 9.37482 19.3499 9.12482 19.0999Z" fill="white"/>
</svg>
