<svg width="12" height="20" viewBox="0 0 12 20" fill="none" xmlns="http://www.w3.org/2000/svg">
<path d="M1.1499 19.1C0.899902 18.85 0.774902 18.554 0.774902 18.212C0.774902 17.87 0.899902 17.5743 1.1499 17.325L8.4749 10L1.1249 2.65C0.891569 2.41667 0.774902 2.125 0.774902 1.775C0.774902 1.425 0.899902 1.125 1.1499 0.875C1.3999 0.625 1.6959 0.5 2.0379 0.5C2.3799 0.5 2.67557 0.625 2.9249 0.875L11.3249 9.3C11.4249 9.4 11.4959 9.50833 11.5379 9.625C11.5799 9.74167 11.6006 9.86667 11.5999 10C11.5999 10.1333 11.5789 10.2583 11.5369 10.375C11.4949 10.4917 11.4242 10.6 11.3249 10.7L2.8999 19.125C2.66657 19.3583 2.3789 19.475 2.0369 19.475C1.6949 19.475 1.39924 19.35 1.1499 19.1Z" fill="white"/>
</svg>
