<svg width="49" height="36" viewBox="0 0 49 36" fill="none" xmlns="http://www.w3.org/2000/svg">
<path d="M39.75 8.83333L30.9167 17.6667H37.5417C37.5417 21.1808 36.1457 24.551 33.6608 27.0358C31.176 29.5207 27.8058 30.9167 24.2917 30.9167C22.0833 30.9167 19.9412 30.3646 18.1083 29.3708L14.8842 32.595C17.6956 34.3843 20.9592 35.3343 24.2917 35.3333C28.9772 35.3333 33.4707 33.472 36.7839 30.1589C40.097 26.8457 41.9583 22.3522 41.9583 17.6667H48.5833M11.0417 17.6667C11.0417 14.1525 12.4376 10.7824 14.9225 8.2975C17.4074 5.81265 20.7775 4.41667 24.2917 4.41667C26.5 4.41667 28.6421 4.96875 30.475 5.9625L33.6992 2.73833C30.8878 0.949037 27.6242 -0.00092665 24.2917 6.78275e-07C19.6062 6.78275e-07 15.1126 1.8613 11.7994 5.17445C8.4863 8.48759 6.625 12.9812 6.625 17.6667H0L8.83333 26.5L17.6667 17.6667" fill="#B975C3"/>
</svg>
