<svg width="48" height="43" viewBox="0 0 48 43" fill="none" xmlns="http://www.w3.org/2000/svg">
<path d="M21.375 42.75V39.1875H41.5625V21.1375C41.5625 18.8417 41.0677 16.6349 40.0781 14.5172C39.0885 12.3995 37.7625 10.5292 36.1 8.90625C34.4375 7.28333 32.5375 5.98698 30.4 5.01719C28.2625 4.0474 26.0458 3.5625 23.75 3.5625C21.4542 3.5625 19.2375 4.0474 17.1 5.01719C14.9625 5.98698 13.0625 7.28333 11.4 8.90625C9.7375 10.5292 8.41146 12.3995 7.42188 14.5172C6.43229 16.6349 5.9375 18.8417 5.9375 21.1375V35.625H4.75C3.44375 35.625 2.32552 35.1599 1.39531 34.2297C0.465104 33.2995 0 32.1812 0 30.875V26.125C0 25.2146 0.217708 24.413 0.653125 23.7203C1.08854 23.0276 1.6625 22.4635 2.375 22.0281L2.55312 18.8813C2.90937 15.9917 3.73073 13.3792 5.01719 11.0437C6.30365 8.70833 7.90677 6.72917 9.82656 5.10625C11.7464 3.48333 13.9036 2.22656 16.2984 1.33594C18.6932 0.445312 21.1771 0 23.75 0C26.3625 0 28.8661 0.445312 31.2609 1.33594C33.6557 2.22656 35.8031 3.49323 37.7031 5.13594C39.6031 6.77865 41.1964 8.75781 42.4828 11.0734C43.7693 13.3891 44.5906 15.9719 44.9469 18.8219L45.125 21.9094C45.8375 22.2656 46.4115 22.7901 46.8469 23.4828C47.2823 24.1755 47.5 24.9375 47.5 25.7687V31.2312C47.5 32.1021 47.2823 32.874 46.8469 33.5469C46.4115 34.2198 45.8375 34.7344 45.125 35.0906V39.1875C45.125 40.1672 44.7762 41.0059 44.0785 41.7035C43.3809 42.4012 42.5422 42.75 41.5625 42.75H21.375ZM16.625 25.5312C16.15 25.5312 15.7344 25.3531 15.3781 24.9969C15.0219 24.6406 14.8438 24.2151 14.8438 23.7203C14.8438 23.2255 15.0219 22.8099 15.3781 22.4734C15.7344 22.137 16.1599 21.9688 16.6547 21.9688C17.1495 21.9688 17.5651 22.1395 17.9016 22.4809C18.238 22.8223 18.4062 23.2453 18.4062 23.75C18.4062 24.225 18.2355 24.6406 17.8941 24.9969C17.5527 25.3531 17.1297 25.5312 16.625 25.5312ZM30.875 25.5312C30.4 25.5312 29.9844 25.3531 29.6281 24.9969C29.2719 24.6406 29.0938 24.2151 29.0938 23.7203C29.0938 23.2255 29.2719 22.8099 29.6281 22.4734C29.9844 22.137 30.4099 21.9688 30.9047 21.9688C31.3995 21.9688 31.8151 22.1395 32.1516 22.4809C32.488 22.8223 32.6562 23.2453 32.6562 23.75C32.6562 24.225 32.4855 24.6406 32.1441 24.9969C31.8027 25.3531 31.3797 25.5312 30.875 25.5312ZM9.55937 22.4438C9.40104 20.1083 9.7276 17.9906 10.5391 16.0906C11.3505 14.1906 12.4391 12.5776 13.8047 11.2516C15.1703 9.92552 16.7437 8.90625 18.525 8.19375C20.3062 7.48125 22.0875 7.125 23.8687 7.125C27.4708 7.125 30.499 8.26302 32.9531 10.5391C35.4073 12.8151 36.9115 15.6552 37.4656 19.0594C33.7448 19.0198 30.4693 18.0203 27.6391 16.0609C24.8089 14.1016 22.6219 11.5583 21.0781 8.43125C20.4448 11.6375 19.1089 14.4776 17.0703 16.9516C15.0318 19.4255 12.5281 21.2563 9.55937 22.4438Z" fill="#B975C3"/>
</svg>
