<svg width="25" height="23" viewBox="0 0 25 23" fill="none" xmlns="http://www.w3.org/2000/svg">
<path d="M7.44305 1.1708C6.28621 1.16941 5.1527 1.48493 4.17417 2.08072C3.19563 2.6765 2.41224 3.52809 1.91497 4.53659C1.4177 5.54509 1.22697 6.6691 1.36492 7.77808C1.50287 8.88707 1.96384 9.93551 2.6943 10.8016L12.4999 21.9141L22.2089 10.9125L22.2572 10.86L22.3056 10.8016C22.8358 10.1842 23.2303 9.469 23.4651 8.69959C23.6998 7.93019 23.7699 7.1227 23.671 6.32632C23.5721 5.52993 23.3063 4.76132 22.8899 4.0673C22.4734 3.37329 21.9149 2.76841 21.2485 2.2895C20.5821 1.8106 19.8217 1.4677 19.0136 1.28169C18.2055 1.09569 17.3667 1.07047 16.5482 1.20758C15.7296 1.34469 14.9486 1.64125 14.2526 2.0792C13.5567 2.51715 12.9603 3.08731 12.4999 3.75497C11.9405 2.9588 11.1877 2.30701 10.3073 1.85654C9.42683 1.40608 8.44552 1.17064 7.44909 1.1708H7.44305Z" stroke="white" stroke-width="2" stroke-linecap="round" stroke-linejoin="round"/>
</svg>
