<svg width="33" height="33" viewBox="0 0 33 33" fill="none" xmlns="http://www.w3.org/2000/svg">
<rect x="0.5" y="0.5" width="32" height="32" rx="16" stroke="#B975C3"/>
<g clip-path="url(#clip0_460_111)">
<path d="M18.2608 16.684C18.2608 15.7653 17.5099 15.0177 16.587 15.0177C15.6641 15.0177 14.9132 15.7653 14.9132 16.684C14.9132 17.603 15.6641 18.3505 16.587 18.3505C17.5099 18.3505 18.2608 17.603 18.2608 16.684ZM20.7476 8.00977H12.2525C9.91197 8.00977 8.00781 9.90564 8.00781 12.2359V13.4134H14.2538C14.9129 12.946 15.7178 12.6699 16.587 12.6699C17.4561 12.6699 18.2611 12.946 18.9202 13.4134H24.9922V12.2359C24.9922 9.90562 23.0881 8.00977 20.7476 8.00977ZM22.4666 12.0292C22.4666 12.2874 22.2545 12.4987 21.995 12.4987H20.5378C20.2783 12.4987 20.0661 12.2874 20.0661 12.0292V10.5782C20.0661 10.3199 20.2783 10.1086 20.5378 10.1086H21.995C22.2545 10.1086 22.4666 10.3199 22.4666 10.5782V12.0292ZM20.6189 16.684C20.6189 18.8977 18.8101 20.6983 16.5869 20.6983C14.3637 20.6983 12.5551 18.8977 12.5551 16.684C12.5551 16.0746 12.6929 15.4967 12.9381 14.9786H8.00781V20.7631C8.00781 23.0936 9.91197 24.9893 12.2525 24.9893H20.7476C23.0881 24.9893 24.9923 23.0935 24.9923 20.7631V14.9786H20.2359C20.4811 15.4967 20.6189 16.0746 20.6189 16.684Z" fill="#B975C3"/>
</g>
<defs>
<clipPath id="clip0_460_111">
<rect width="17" height="17" fill="white" transform="translate(8 8)"/>
</clipPath>
</defs>
</svg>
