<svg width="19" height="13" viewBox="0 0 19 13" fill="none" xmlns="http://www.w3.org/2000/svg">
<path d="M1.16667 12.75C0.871531 12.75 0.623962 12.65 0.423962 12.45C0.223962 12.25 0.124309 12.0028 0.125004 11.7083C0.125004 11.4132 0.225004 11.1656 0.425004 10.9656C0.625004 10.7656 0.872226 10.666 1.16667 10.6667H17.8333C18.1285 10.6667 18.376 10.7667 18.576 10.9667C18.776 11.1667 18.8757 11.4139 18.875 11.7083C18.875 12.0035 18.775 12.251 18.575 12.451C18.375 12.651 18.1278 12.7507 17.8333 12.75H1.16667ZM1.16667 7.54167C0.871531 7.54167 0.623962 7.44167 0.423962 7.24167C0.223962 7.04167 0.124309 6.79445 0.125004 6.5C0.125004 6.20486 0.225004 5.95729 0.425004 5.75729C0.625004 5.55729 0.872226 5.45764 1.16667 5.45834H17.8333C18.1285 5.45834 18.376 5.55834 18.576 5.75834C18.776 5.95834 18.8757 6.20556 18.875 6.5C18.875 6.79514 18.775 7.04271 18.575 7.24271C18.375 7.44271 18.1278 7.54236 17.8333 7.54167H1.16667ZM1.16667 2.33334C0.871531 2.33334 0.623962 2.23334 0.423962 2.03334C0.223962 1.83334 0.124309 1.58611 0.125004 1.29167C0.125004 0.996531 0.225004 0.748962 0.425004 0.548962C0.625004 0.348962 0.872226 0.249309 1.16667 0.250004H17.8333C18.1285 0.250004 18.376 0.350004 18.576 0.550004C18.776 0.750004 18.8757 0.997226 18.875 1.29167C18.875 1.58681 18.775 1.83438 18.575 2.03438C18.375 2.23438 18.1278 2.33403 17.8333 2.33334H1.16667Z" fill="white"/>
</svg>
