<svg width="34" height="46" viewBox="0 0 34 46" fill="none" xmlns="http://www.w3.org/2000/svg">
<path d="M17.0002 2.0001C15.9602 1.22011 14.7236 0.745132 13.4288 0.628386C12.1341 0.51164 10.8324 0.75774 9.6697 1.33911C8.50696 1.92048 7.52908 2.81415 6.84564 3.91998C6.1622 5.02581 5.8002 6.30012 5.8002 7.6001V11.8001H3.0002C2.25759 11.8001 1.5454 12.0951 1.0203 12.6202C0.495195 13.1453 0.200195 13.8575 0.200195 14.6001V37.0001C0.200195 39.2279 1.08519 41.3645 2.6605 42.9398C4.2358 44.5151 6.37238 45.4001 8.6002 45.4001H26.8002C28.6567 45.4001 30.4372 44.6626 31.7499 43.3498C33.0627 42.0371 33.8002 40.2566 33.8002 38.4001V14.6001C33.8002 13.8575 33.5052 13.1453 32.9801 12.6202C32.455 12.0951 31.7428 11.8001 31.0002 11.8001H28.2002V7.6001C28.2002 6.30012 27.8382 5.02581 27.1548 3.91998C26.4713 2.81415 25.4934 1.92048 24.3307 1.33911C23.168 0.75774 21.8663 0.51164 20.5716 0.628386C19.2768 0.745132 18.0402 1.22011 17.0002 2.0001ZM8.6002 7.6001C8.6002 6.48619 9.04269 5.4179 9.83035 4.63025C10.618 3.8426 11.6863 3.4001 12.8002 3.4001C13.9141 3.4001 14.9824 3.8426 15.77 4.63025C16.5577 5.4179 17.0002 6.48619 17.0002 7.6001V11.8001H8.6002V7.6001ZM18.8678 4.1057C19.5003 3.68331 20.2357 3.44062 20.9954 3.40353C21.7551 3.36645 22.5106 3.53635 23.1813 3.89512C23.852 4.25388 24.4126 4.78804 24.8034 5.44057C25.1942 6.09309 25.4005 6.8395 25.4002 7.6001V11.8001H19.8002V7.6001C19.8002 6.3289 19.4614 5.1361 18.8678 4.1057ZM8.6002 42.6001C7.11498 42.6001 5.6906 42.0101 4.6404 40.9599C3.59019 39.9097 3.0002 38.4853 3.0002 37.0001V14.6001H19.8002V38.4001C19.8002 39.9765 20.321 41.4297 21.2002 42.6001H8.6002ZM31.0002 38.4001C31.0002 39.514 30.5577 40.5823 29.77 41.3699C28.9824 42.1576 27.9141 42.6001 26.8002 42.6001C25.6863 42.6001 24.618 42.1576 23.8303 41.3699C23.0427 40.5823 22.6002 39.514 22.6002 38.4001V14.6001H31.0002V38.4001Z" fill="#B975C3"/>
</svg>
