<svg width="24" height="20" viewBox="0 0 24 20" fill="none" xmlns="http://www.w3.org/2000/svg">
<path d="M23 4.21714e-05C23.2652 4.21714e-05 23.5196 0.105399 23.7071 0.292936C23.8946 0.480472 24 0.734826 24 1.00004C24 1.26526 23.8946 1.51961 23.7071 1.70715C23.5196 1.89469 23.2652 2.00004 23 2.00004H20.78L18.156 12.5C17.933 13.39 17.136 14 16.219 14H4.749C3.846 14 3.079 13.4 2.842 12.53L0.25 3.00004H17L16.5 5.00004H2.844L4.75 12H16.22L18.843 1.50004C18.9514 1.06927 19.2011 0.68732 19.5523 0.415356C19.9035 0.143391 20.3358 -0.00285293 20.78 4.21714e-05H23ZM6 14C7.645 14 9 15.355 9 17C9 18.645 7.645 20 6 20C4.355 20 3 18.645 3 17C3 15.355 4.355 14 6 14ZM15 14C16.645 14 18 15.355 18 17C18 18.645 16.645 20 15 20C13.355 20 12 18.645 12 17C12 15.355 13.355 14 15 14ZM15 16C14.436 16 14 16.436 14 17C14 17.564 14.436 18 15 18C15.564 18 16 17.564 16 17C16 16.436 15.564 16 15 16ZM6 16C5.436 16 5 16.436 5 17C5 17.564 5.436 18 6 18C6.564 18 7 17.564 7 17C7 16.436 6.564 16 6 16Z" fill="#C485CC"/>
</svg>
