<svg width="20" height="20" viewBox="0 0 20 20" fill="none" xmlns="http://www.w3.org/2000/svg">
<path d="M14 20C14.55 20 15.021 19.804 15.413 19.412C15.805 19.02 16.0007 18.5493 16 18C16 17.45 15.804 16.979 15.412 16.587C15.02 16.195 14.5493 15.9993 14 16C13.45 16 12.979 16.196 12.587 16.588C12.195 16.98 11.9993 17.4507 12 18C12 18.55 12.196 19.021 12.588 19.413C12.98 19.805 13.4507 20.0007 14 20ZM4 20C4.55 20 5.021 19.804 5.413 19.412C5.805 19.02 6.00067 18.5493 6 18C6 17.45 5.804 16.979 5.412 16.587C5.02 16.195 4.54933 15.9993 4 16C3.45 16 2.979 16.196 2.587 16.588C2.195 16.98 1.99933 17.4507 2 18C2 18.55 2.196 19.021 2.588 19.413C2.98 19.805 3.45067 20.0007 4 20ZM14.85 4L12.45 9H5.45L2.7 4H14.85ZM15.8 2H1.05C0.666666 2 0.374999 2.171 0.174999 2.513C-0.0250008 2.855 -0.0333337 3.20067 0.15 3.55L3.7 9.95C3.88333 10.2833 4.12933 10.5417 4.438 10.725C4.74667 10.9083 5.084 11 5.45 11H12.9L14 13H2V15H14C14.75 15 15.3167 14.6707 15.7 14.012C16.0833 13.3533 16.1 12.6993 15.75 12.05L14.4 9.6L18 2H20V0H16.75L15.8 2Z" fill="white"/>
</svg>
