<svg width="48" height="34" viewBox="0 0 48 34" fill="none" xmlns="http://www.w3.org/2000/svg">
<path d="M0 7.4375H20.7188L22.3125 10.625H1.59375L0 7.4375ZM2.125 13.8125H22.8438L24.4375 17H3.71875L2.125 13.8125ZM36.6562 30.8125C38.42 30.8125 39.8438 29.3887 39.8438 27.625C39.8438 25.8613 38.42 24.4375 36.6562 24.4375C34.8925 24.4375 33.4688 25.8613 33.4688 27.625C33.4688 29.3887 34.8925 30.8125 36.6562 30.8125ZM39.8438 11.6875H34.5312V17H44.0087L39.8438 11.6875ZM15.4062 30.8125C17.17 30.8125 18.5938 29.3887 18.5938 27.625C18.5938 25.8613 17.17 24.4375 15.4062 24.4375C13.6425 24.4375 12.2188 25.8613 12.2188 27.625C12.2188 29.3887 13.6425 30.8125 15.4062 30.8125ZM40.9062 8.5L47.2812 17V27.625H43.0312C43.0312 31.1525 40.1837 34 36.6562 34C33.1288 34 30.2812 31.1525 30.2812 27.625H21.7812C21.7812 31.1525 18.9125 34 15.4062 34C11.8788 34 9.03125 31.1525 9.03125 27.625H4.78125V20.1875H9.03125V23.375H10.6463C11.815 22.0787 13.515 21.25 15.4062 21.25C17.2975 21.25 18.9975 22.0787 20.1662 23.375H30.2812V4.25H4.78125C4.78125 1.89125 6.6725 0 9.03125 0H34.5312V8.5H40.9062Z" fill="#B975C3"/>
</svg>
