<svg width="31" height="31" viewBox="0 0 31 31" fill="none" xmlns="http://www.w3.org/2000/svg">
<rect x="0.5" y="0.5" width="30" height="30" rx="15" stroke="#B975C3"/>
<path d="M21.8335 11.6509C21.3655 11.9055 20.8693 12.0728 20.3611 12.1472C20.8965 11.7528 21.2971 11.1325 21.4883 10.4019C20.9854 10.77 20.4341 11.0279 19.8601 11.1674C19.4742 10.6595 18.9626 10.3227 18.4049 10.2093C17.8473 10.0958 17.2747 10.2122 16.7764 10.5403C16.278 10.8683 15.8818 11.3897 15.6492 12.0233C15.4166 12.6569 15.3607 13.3673 15.4903 14.044C14.4705 13.9813 13.4728 13.6554 12.562 13.0876C11.6512 12.5197 10.8477 11.7227 10.2037 10.7481C9.97572 11.2296 9.85594 11.777 9.85658 12.3342C9.85658 13.4278 10.3098 14.394 10.9972 14.9596C10.59 14.9438 10.1918 14.8086 9.83573 14.5652V14.6036C9.83571 15.3321 10.0406 16.0382 10.4156 16.6021C10.7905 17.166 11.3126 17.553 11.8931 17.6974C11.5151 17.8236 11.1188 17.8421 10.7341 17.7517C10.8978 18.3788 11.2168 18.9272 11.6466 19.3201C12.0763 19.713 12.5952 19.9307 13.1306 19.9428C12.5985 20.4567 11.9893 20.8366 11.3378 21.0608C10.6862 21.2849 10.0052 21.3489 9.3335 21.2491C10.5058 22.1763 11.8705 22.6685 13.2643 22.667C17.9824 22.667 20.5617 17.8604 20.5617 13.6918C20.5617 13.556 20.5592 13.4188 20.5543 13.2838C21.0562 12.8375 21.4893 12.2841 21.8335 11.6509Z" fill="#B975C3"/>
</svg>
